<?xml version="1.0" standalone="no"?>
<!DOCTYPE svg PUBLIC "-//W3C//DTD SVG 20010904//EN"
 "http://www.w3.org/TR/2001/REC-SVG-20010904/DTD/svg10.dtd">
<svg version="1.0" xmlns="http://www.w3.org/2000/svg"
 width="150.000000pt" height="150.000000pt" viewBox="0 0 150.000000 150.000000"
 preserveAspectRatio="xMidYMid meet">

<g transform="translate(0.000000,150.000000) scale(0.100000,-0.100000)"
fill="#000000" stroke="none">
<path d="M650 1124 c-126 -13 -202 -28 -229 -45 l-31 -19 0 -319 0 -319 -82
-7 c-167 -15 -224 -47 -126 -71 199 -50 947 -50 1146 0 101 24 34 59 -140 72
l-88 7 0 318 0 319 -26 17 c-14 9 -56 22 -92 29 -71 13 -274 24 -332 18z"/>
</g>
</svg>
